<?xml version="1.0"?>
<svg version="1.1" xmlns="http://www.w3.org/2000/svg" width="400" height="200" style=""><path fill="#f0b630" d="M42.685,106.02q-1.295,0.525-2.2225,0.525t-0.9275-0.385q0-0.245,1.0325-0.28t1.4875-0.245q1.33-0.7,1.33-2.065q0-0.7-0.385-1.47q-1.12-1.995-5.425-1.995q-2.485,0-4.97,0.7525t-4.165,2.31t-1.68,2.8875q0,2.03,4.025,2.975l4.13,0.77q2.485,0.455,3.71,1.26q1.61,0.98,1.61,2.8q0,0.735-0.245,1.575q-1.12,3.78-5.775,5.775q-3.885,1.715-9.17,1.715q-1.505,0-2.625-0.14q1.12,0.63,2.94,1.085q0.14,0.035,0.14,0.14q0,0.315-0.735,0.315q-1.435,0-3.57-1.715q-2.905-0.455-4.34-1.61q-0.91-0.735-1.68-2.17t-0.77-2.59t0.455-1.925q1.05-1.855,2.66-1.855q1.225,0,1.435,2.065q0.49,3.99,0.665,4.55q0.525,1.715,1.785,2.905q1.47,0.315,3.185,0.315q3.78,0,7.42-1.505t5.25-4.27q0.665-1.085,0.665-1.925q0-1.645-2.905-2.555l-6.16-1.4q-1.89-0.455-3.0275-1.505t-1.1375-2.415q0-2.1,2.625-4.2q1.995-1.61,4.8825-2.5025t5.67-0.8925t4.6025,0.805q2.345,1.085,2.345,3.1675t-2.135,2.9225z M20.145,121.63q-2.03-2.24-2.59-6.125q-0.315-2.205-0.595-2.205t-0.525,0.1575t-0.49,0.6825t-0.245,1.365q0,2.695,1.89,4.62q0.945,0.98,2.555,1.505z M44.51095,121.455q-0.385,0-0.7-0.105q-2.24-0.63-2.24-2.52q0-2.45,3.08-5.67t5.53-3.22q0.805,0,1.3125,0.4375t0.5075,1.0675q0,1.96-2.9575,3.745t-4.8125,1.785q-0.28,0-0.49-0.07q-0.525,0.945-0.525,1.995q0,1.82,1.7325,1.82t4.4975-2.345q2.135-1.715,3.64-3.64q0.315-0.42,0.5425-0.42t0.2275,0.21t-0.28,0.595q-1.89,2.485-4.55,4.41t-4.515,1.925z M51.12595,111.375q0-0.42-0.8925-0.42t-2.5375,1.365q-2.205,1.82-3.43,3.815q0.21,0.07,0.455,0.07q1.33,0,3.5525-1.4175t2.7825-3.0975q0.07-0.175,0.07-0.315z M58.9019,109.94q0.945,0,0.945,0.735q0,0.21-0.105,0.42q-3.15,4.375-3.78,6.615q8.155-8.155,9.905-8.155q0.175-0.035,0.315-0.035q0.98,0,0.98,0.875q0,0.175-0.07,0.35t-1.4,1.89q-1.54,1.82-2.6075,3.5t-1.0675,2.8t0.49,1.12q1.54,0,5.355-4.235q0.07-0.07,0.245-0.315q0.525-0.63,0.63-0.63t0.105,0.35t-0.49,0.91q-4.34,4.935-6.16,4.935q-1.715,0-1.715-1.89t1.4-4.34l2.24-3.64q-2.38,1.75-4.235,3.8325t-3.3775,4.0425t-1.7675,1.96q-0.525,0-0.8225-0.4375t-0.2975-1.085t0.455-1.7325t1.155-2.625l-2.1,2.205q-0.77,0.77-0.9625,0.77t-0.1925-0.2275t0.28-0.5075q1.295-1.295,2.24-2.485q0.91-1.19,3.745-4.55q0.315-0.42,0.665-0.42z M80.53785,110.535l0.49-0.105q0.385,0,0.735,0.315t0.35,0.49t-2.17,3.3775t-2.17,4.4625q0,0.105,0.035,0.21q0.175,0.805,0.77,0.805q1.82,0,6.65-6.02q0.105-0.14,0.245-0.14t0.14,0.2625t-0.315,0.6825q-4.48,5.985-6.825,5.985q-0.315,0-0.595-0.105q-1.54-0.595-1.54-2.31q0-0.595,0.14-1.19l-2.17,2.1q-2.065,1.82-2.9925,1.82t-1.7675-0.595q-0.945-0.7-0.945-1.855q0-2.555,3.57-6.1075t6.545-3.5525q1.155,0,1.54,0.805q0.105,0.28,0.175,0.4725t0.105,0.1925z M70.07285,119.145q0,1.26,0.875,1.26q2.03,0,5.53-4.445l3.71-5.11q-0.28-0.49-0.91-0.49q-2.135,0-5.67,3.3075t-3.535,5.4775z M88.5588,111.9l3.395,0.035q2.03,0,2.905-0.105q0.035,0.035,0.035,0.105q0,0.525-2.765,1.015q-1.505,0.21-2.8175,0.4375t-1.68,0.2275t-1.225-0.1575t-0.8575-0.6825q0-0.35,0.2975-0.595t0.5075-0.245t0.42-0.035l0.91,0l0.875,0z M116.84475,111.55q-1.75,0-3.255-0.28q0.49,1.54,2.065,6.965q0.49,1.575,1.54,3.185q1.435,2.065,2.66,2.065q1.47,0,2.45-2.975q0.175-0.7,0.3675-0.7t0.28,0.4025t0.0875,0.5425q0,0.875-0.98,2.24q-1.295,1.925-2.835,1.925t-2.835-1.54t-2.5375-5.6175t-1.2425-5.1975q0-0.175,0.035-0.28q-4.2,5.565-6.02,7.35q-4.06,3.955-8.295,3.955q-2.975,0-2.975-2.24q0-1.12,0.7-2.4675t1.715-2.3625t1.785-1.015q0.14,0,0.14,0.07q0,0.175-0.875,0.875t-1.68,1.9775t-0.805,2.3275q0,1.855,2.485,1.855q4.655,0,12.81-10.92q0.455-0.595,0.77-0.84l-0.56-0.21q-0.455,0.175-0.735,0.175q-0.735,0-0.735-0.595q0-0.805,1.085-1.05q0.14-0.035,0.245-0.035q0.63,0,1.47,0.63q3.08-3.43,3.15-3.5q2.555-2.625,3.4475-2.625t0.8925,0.77q0,0.35-0.1575,0.665t-0.3675,0.315q-0.21,0.07-0.21-0.21q0-0.14,0.21-0.42q0.035-0.49-0.315-0.49q-1.12,0-5.425,5.95q1.05,0.07,1.75,0.07q8.12,0,10.15-4.2q0.42-0.91,0.42-1.68q0-1.54-1.4-2.66q-2.24-1.82-7.28-1.82t-10.29,2.555q-6.37,3.115-6.37,7.315q0,1.365,1.715,1.365t3.64-1.26t2.59-2.485q0.245-0.455,0.4725-0.455t0.1225,0.28q-0.665,1.96-2.9575,3.3425t-4.7775,1.3825t-2.485-1.575l0-0.245q0.525-4.585,5.6175-7.7875t12.2675-3.2025q6.685,0,9.485,2.31q1.68,1.4,1.68,3.29q0,0.805-0.385,1.75q-1.085,2.555-4.445,3.7975t-7.07,1.2425z M133.2832,107.0525q0.4725,0.3325,0.4725,0.7875t-0.4375,0.7875t-0.9625,0.3325t-0.9625-0.385t-0.4375-0.875q0-0.98,1.33-0.98q0.525,0,0.9975,0.3325z M125.9507,121.385q-1.785,0-1.785-2.31q0-1.89,2.065-5.2325t3.325-3.3775q0.35,0,0.7875,0.28t0.4375,0.56q-0.175,0.245-0.42,0.5425t-0.525,0.6475t-0.77,0.9975t-0.945,1.2425q-2.625,3.395-2.625,4.6725t0.875,1.2775q0.735,0,1.995-0.805q2.94-1.82,4.655-3.99q0.63-0.805,0.8575-0.805t0.2275,0.28t-0.805,1.12t-1.2775,1.33t-0.6475,0.6475t-0.6475,0.595t-0.7175,0.6125t-0.7,0.525t-0.805,0.5075t-0.805,0.3675q-0.735,0.315-1.75,0.315z M136.80665,121.455q-0.385,0-0.7-0.105q-2.24-0.63-2.24-2.52q0-2.45,3.08-5.67t5.53-3.22q0.805,0,1.3125,0.4375t0.5075,1.19t-0.455,1.575t-1.365,0.8225t-0.91-0.56q0-0.385,0.4725-1.1725t0.4725-0.84t-0.105-0.0525q-0.98,0.105-2.6775,1.4t-2.3275,2.17l-1.365,1.995q-0.35,0.56-0.5075,1.33t-0.1575,1.155t0.4375,0.875t1.2425,0.49q1.75,0,4.34-2.0475t3.99-3.9025q0.175-0.21,0.42-0.21t0.245,0.14t-0.175,0.35q-1.925,2.555-4.6025,4.4625t-4.4625,1.9075z M153.8926,120.86q-2.065,0-2.065-2.415q0-1.365,0.9625-3.0275t2.3625-3.9025q-4.48,2.24-8.12,6.615q-2.03,3.045-2.38,3.045q-1.015,0-1.015-0.595q0-0.315,0.42-1.12q3.395-6.055,5.145-8.855q4.165-6.685,5.88-7.245q0.07-0.035,0.14-0.035q0.455,0,0.63,0.735q-0.105,0.735-3.64,5.32q-3.675,4.655-4.165,6.09q1.295-0.945,4.515-3.185q3.465-2.415,4.585-2.415t1.12,0.875q0,0.14-0.0175,0.1925t-2.4325,3.3075t-2.415,4.795q0,0.805,0.595,0.805q1.89-0.07,5.67-4.55q0.315-0.315,0.4725-0.315t0.1575,0.21q0,0.7-3.465,3.78q-2.17,1.89-2.94,1.89z M197.8995,96.605q0.735,0,0.735,0.525q0,2.135-5.88,12.215q0.245,0.945,0.77,2.205l10.43-7.945q5.985-4.55,8.085-5.845q4.69-2.8,9.205-2.8q1.295,0,2.38,0.42q0.665,0.245,0.665,0.91t-0.35,0.665q-0.21,0-0.4375-0.28t-1.33-0.28t-3.5875,0.56q-3.92,0.875-8.89,3.92q-3.115,1.925-8.33,5.915t-7.525,5.495q1.785,3.745,4.585,6.965q4.305,5.005,7.735,5.005q1.68,0,1.68-1.295q0-0.245-0.0525-0.49t0.1225-0.595t0.42-0.35q0.455,0,0.595,1.085q0.035,0.175,0.035,0.35q0,1.12-1.1375,1.8375t-2.695,0.7175t-2.6075-0.49q-2.765-1.365-5.5825-4.795t-4.3225-7.21q-1.925,1.12-3.185,1.225q-2.345,3.045-5.775,5.915q-1.855,1.575-4.025,2.5375t-4.165,0.9625q-2.835,0-4.375-1.4175t-1.54-4.3225q0-1.435,0.56-2.66q1.785-3.955,5.39-5.46q1.995-0.875,3.9725-0.875t2.6425,1.295q0.245,0.455,0.245,0.9625t-0.14,0.6475t-0.385-0.245q-0.84-1.54-1.785-1.715q-0.63-0.07-0.91-0.07q-2.73,0-5.11,2.275q-3.08,2.975-3.08,6.44q0,3.78,4.27,4.27l0.28,0q1.54,0,3.955-1.365q3.92-2.24,8.365-7.7q-0.805-0.735-0.805-2.17t1.0675-2.7125t2.9225-1.2775q0.525,0,0.98,0.105q1.75-2.94,3.395-6.3525t1.645-3.9375q0-0.07-0.21-0.07t-2.4325,1.1025t-3.1675,1.7325t-2.31,1.9775t-1.365,2.1875q0,0.385,0.5425,0.77t1.9775,0.385q0.175,0.07,0.175,0.1925t-0.9625,0.28t-1.5225,0.1575q-1.26,0-1.26-1.05q0-1.225,1.505-2.94t3.29-2.695q5.215-2.8,6.615-2.8z M192.3345,112.285q-0.28-0.7-0.455-1.4q-0.7,1.015-1.4,1.995q0.35,0,0.63-0.0525t1.225-0.5425z M191.0045,109.275q-0.42-0.175-0.9275-0.175t-1.015,0.63t-0.5075,1.3475t0.385,1.2075q1.715-2.45,2.065-3.01z M208.49295,119.145q0.4725,0.35,0.4725,0.7875t-0.4375,0.77t-0.9625,0.3325t-0.9625-0.3675t-0.4375-0.8575q0-1.015,1.33-1.015q0.525,0,0.9975,0.35z"/><path fill="#" d=""/></svg>
