<?xml version="1.0"?>
<svg version="1.1" xmlns="http://www.w3.org/2000/svg" width="400" height="200" style=""><path fill="#f0b630" d="M50.595,107.74q-1.665,0.675-2.8575,0.675t-1.1925-0.495q0-0.315,1.3275-0.36t1.9125-0.315q1.71-0.9,1.71-2.655q0-0.9-0.495-1.89q-1.44-2.565-6.975-2.565q-3.195,0-6.39,0.9675t-5.355,2.97t-2.16,3.7125q0,2.61,5.175,3.825l5.31,0.99q3.195,0.585,4.77,1.62q2.07,1.26,2.07,3.6q0,0.945-0.315,2.025q-1.44,4.86-7.425,7.425q-4.995,2.205-11.79,2.205q-1.935,0-3.375-0.18q1.44,0.81,3.78,1.395q0.18,0.045,0.18,0.18q0,0.405-0.945,0.405q-1.845,0-4.59-2.205q-3.735-0.585-5.58-2.07q-1.17-0.945-2.16-2.79t-0.99-3.33t0.585-2.475q1.35-2.385,3.42-2.385q1.575,0,1.845,2.655q0.63,5.13,0.855,5.85q0.675,2.205,2.295,3.735q1.89,0.405,4.095,0.405q4.86,0,9.54-1.935t6.75-5.49q0.855-1.395,0.855-2.475q0-2.115-3.735-3.285l-7.92-1.8q-2.43-0.585-3.8925-1.935t-1.4625-3.105q0-2.7,3.375-5.4q2.565-2.07,6.2775-3.2175t7.29-1.1475t5.9175,1.035q3.015,1.395,3.015,4.0725t-2.745,3.7575z M21.615,127.81q-2.61-2.88-3.33-7.875q-0.405-2.835-0.765-2.835t-0.675,0.2025t-0.63,0.8775t-0.315,1.755q0,3.465,2.43,5.94q1.215,1.26,3.285,1.935z M52.94265,127.585q-0.495,0-0.9-0.135q-2.88-0.81-2.88-3.24q0-3.15,3.96-7.29t7.11-4.14q1.035,0,1.6875,0.5625t0.6525,1.3725q0,2.52-3.8025,4.815t-6.1875,2.295q-0.36,0-0.63-0.09q-0.675,1.215-0.675,2.565q0,2.34,2.2275,2.34t5.7825-3.015q2.745-2.205,4.68-4.68q0.405-0.54,0.6975-0.54t0.2925,0.27t-0.36,0.765q-2.43,3.195-5.85,5.67t-5.805,2.475z M61.44765,114.625q0-0.54-1.1475-0.54t-3.2625,1.755q-2.835,2.34-4.41,4.905q0.27,0.09,0.585,0.09q1.71,0,4.5675-1.8225t3.5775-3.9825q0.09-0.225,0.09-0.405z M71.4453,112.78q1.215,0,1.215,0.945q0,0.27-0.135,0.54q-4.05,5.625-4.86,8.505q10.485-10.485,12.735-10.485q0.225-0.045,0.405-0.045q1.26,0,1.26,1.125q0,0.225-0.09,0.45t-1.8,2.43q-1.98,2.34-3.3525,4.5t-1.3725,3.6t0.63,1.44q1.98,0,6.885-5.445q0.09-0.09,0.315-0.405q0.675-0.81,0.81-0.81t0.135,0.45t-0.63,1.17q-5.58,6.345-7.92,6.345q-2.205,0-2.205-2.43t1.8-5.58l2.88-4.68q-3.06,2.25-5.445,4.9275t-4.3425,5.1975t-2.2725,2.52q-0.675,0-1.0575-0.5625t-0.3825-1.395t0.585-2.2275t1.485-3.375l-2.7,2.835q-0.99,0.99-1.2375,0.99t-0.2475-0.2925t0.36-0.6525q1.665-1.665,2.88-3.195q1.17-1.53,4.815-5.85q0.405-0.54,0.855-0.54z M99.26295,113.545l0.63-0.135q0.495,0,0.945,0.405t0.45,0.63t-2.79,4.3425t-2.79,5.7375q0,0.135,0.045,0.27q0.225,1.035,0.99,1.035q2.34,0,8.55-7.74q0.135-0.18,0.315-0.18t0.18,0.3375t-0.405,0.8775q-5.76,7.695-8.775,7.695q-0.405,0-0.765-0.135q-1.98-0.765-1.98-2.97q0-0.765,0.18-1.53l-2.79,2.7q-2.655,2.34-3.8475,2.34t-2.2725-0.765q-1.215-0.9-1.215-2.385q0-3.285,4.59-7.8525t8.415-4.5675q1.485,0,1.98,1.035q0.135,0.36,0.225,0.6075t0.135,0.2475z M85.80795,124.615q0,1.62,1.125,1.62q2.61,0,7.11-5.715l4.77-6.57q-0.36-0.63-1.17-0.63q-2.745,0-7.29,4.2525t-4.545,7.0425z M109.5756,115.3l4.365,0.045q2.61,0,3.735-0.135q0.045,0.045,0.045,0.135q0,0.675-3.555,1.305q-1.935,0.27-3.6225,0.5625t-2.16,0.2925t-1.575-0.2025t-1.1025-0.8775q0-0.45,0.3825-0.765t0.6525-0.315t0.54-0.045l1.17,0l1.125,0z M145.94325,114.85q-2.25,0-4.185-0.36q0.63,1.98,2.655,8.955q0.63,2.025,1.98,4.095q1.845,2.655,3.42,2.655q1.89,0,3.15-3.825q0.225-0.9,0.4725-0.9t0.36,0.5175t0.1125,0.6975q0,1.125-1.26,2.88q-1.665,2.475-3.645,2.475t-3.645-1.98t-3.2625-7.2225t-1.5975-6.6825q0-0.225,0.045-0.36q-5.4,7.155-7.74,9.45q-5.22,5.085-10.665,5.085q-3.825,0-3.825-2.88q0-1.44,0.9-3.1725t2.205-3.0375t2.295-1.305q0.18,0,0.18,0.09q0,0.225-1.125,1.125t-2.16,2.5425t-1.035,2.9925q0,2.385,3.195,2.385q5.985,0,16.47-14.04q0.585-0.765,0.99-1.08l-0.72-0.27q-0.585,0.225-0.945,0.225q-0.945,0-0.945-0.765q0-1.035,1.395-1.35q0.18-0.045,0.315-0.045q0.81,0,1.89,0.81q3.96-4.41,4.05-4.5q3.285-3.375,4.4325-3.375t1.1475,0.99q0,0.45-0.2025,0.855t-0.4725,0.405q-0.27,0.09-0.27-0.27q0-0.18,0.27-0.54q0.045-0.63-0.405-0.63q-1.44,0-6.975,7.65q1.35,0.09,2.25,0.09q10.44,0,13.05-5.4q0.54-1.17,0.54-2.16q0-1.98-1.8-3.42q-2.88-2.34-9.36-2.34t-13.23,3.285q-8.19,4.005-8.19,9.405q0,1.755,2.205,1.755t4.68-1.62t3.33-3.195q0.315-0.585,0.6075-0.585t0.1575,0.36q-0.855,2.52-3.8025,4.2975t-6.1425,1.7775t-3.195-2.025l0-0.315q0.675-5.895,7.2225-10.0125t15.7725-4.1175q8.595,0,12.195,2.97q2.16,1.8,2.16,4.23q0,1.035-0.495,2.25q-1.395,3.285-5.715,4.8825t-9.09,1.5975z M167.0784,109.0675q0.6075,0.4275,0.6075,1.0125t-0.5625,1.0125t-1.2375,0.4275t-1.2375-0.495t-0.5625-1.125q0-1.26,1.71-1.26q0.675,0,1.2825,0.4275z M157.6509,127.495q-2.295,0-2.295-2.97q0-2.43,2.655-6.7275t4.275-4.3425q0.45,0,1.0125,0.36t0.5625,0.72q-0.225,0.315-0.54,0.6975t-0.675,0.8325t-0.99,1.2825t-1.215,1.5975q-3.375,4.365-3.375,6.0075t1.125,1.6425q0.945,0,2.565-1.035q3.78-2.34,5.985-5.13q0.81-1.035,1.1025-1.035t0.2925,0.36t-1.035,1.44t-1.6425,1.71t-0.8325,0.8325t-0.8325,0.765t-0.9225,0.7875t-0.9,0.675t-1.035,0.6525t-1.035,0.4725q-0.945,0.405-2.25,0.405z M171.60855,127.585q-0.495,0-0.9-0.135q-2.88-0.81-2.88-3.24q0-3.15,3.96-7.29t7.11-4.14q1.035,0,1.6875,0.5625t0.6525,1.53t-0.585,2.025t-1.755,1.0575t-1.17-0.72q0-0.495,0.6075-1.5075t0.6075-1.08t-0.135-0.0675q-1.26,0.135-3.4425,1.8t-2.9925,2.79l-1.755,2.565q-0.45,0.72-0.6525,1.71t-0.2025,1.485t0.5625,1.125t1.5975,0.63q2.25,0,5.58-2.6325t5.13-5.0175q0.225-0.27,0.54-0.27t0.315,0.18t-0.225,0.45q-2.475,3.285-5.9175,5.7375t-5.7375,2.4525z M193.5762,126.82q-2.655,0-2.655-3.105q0-1.755,1.2375-3.8925t3.0375-5.0175q-5.76,2.88-10.44,8.505q-2.61,3.915-3.06,3.915q-1.305,0-1.305-0.765q0-0.405,0.54-1.44q4.365-7.785,6.615-11.385q5.355-8.595,7.56-9.315q0.09-0.045,0.18-0.045q0.585,0,0.81,0.945q-0.135,0.945-4.68,6.84q-4.725,5.985-5.355,7.83q1.665-1.215,5.805-4.095q4.455-3.105,5.895-3.105t1.44,1.125q0,0.18-0.0225,0.2475t-3.1275,4.2525t-3.105,6.165q0,1.035,0.765,1.035q2.43-0.09,7.29-5.85q0.405-0.405,0.6075-0.405t0.2025,0.27q0,0.9-4.455,4.86q-2.79,2.43-3.78,2.43z M250.1565,95.635q0.945,0,0.945,0.675q0,2.745-7.56,15.705q0.315,1.215,0.99,2.835l13.41-10.215q7.695-5.85,10.395-7.515q6.03-3.6,11.835-3.6q1.665,0,3.06,0.54q0.855,0.315,0.855,1.17t-0.45,0.855q-0.27,0-0.5625-0.36t-1.71-0.36t-4.6125,0.72q-5.04,1.125-11.43,5.04q-4.005,2.475-10.71,7.605t-9.675,7.065q2.295,4.815,5.895,8.955q5.535,6.435,9.945,6.435q2.16,0,2.16-1.665q0-0.315-0.0675-0.63t0.1575-0.765t0.54-0.45q0.585,0,0.765,1.395q0.045,0.225,0.045,0.45q0,1.44-1.4625,2.3625t-3.465,0.9225t-3.3525-0.63q-3.555-1.755-7.1775-6.165t-5.5575-9.27q-2.475,1.44-4.095,1.575q-3.015,3.915-7.425,7.605q-2.385,2.025-5.175,3.2625t-5.355,1.2375q-3.645,0-5.625-1.8225t-1.98-5.5575q0-1.845,0.72-3.42q2.295-5.085,6.93-7.02q2.565-1.125,5.1075-1.125t3.3975,1.665q0.315,0.585,0.315,1.2375t-0.18,0.8325t-0.495-0.315q-1.08-1.98-2.295-2.205q-0.81-0.09-1.17-0.09q-3.51,0-6.57,2.925q-3.96,3.825-3.96,8.28q0,4.86,5.49,5.49l0.36,0q1.98,0,5.085-1.755q5.04-2.88,10.755-9.9q-1.035-0.945-1.035-2.79t1.3725-3.4875t3.7575-1.6425q0.675,0,1.26,0.135q2.25-3.78,4.365-8.1675t2.115-5.0625q0-0.09-0.27-0.09t-3.1275,1.4175t-4.0725,2.2275t-2.97,2.5425t-1.755,2.8125q0,0.495,0.6975,0.99t2.5425,0.495q0.225,0.09,0.225,0.2475t-1.2375,0.36t-1.9575,0.2025q-1.62,0-1.62-1.35q0-1.575,1.935-3.78t4.23-3.465q6.705-3.6,8.505-3.6z M243.0015,115.795q-0.36-0.9-0.585-1.8q-0.9,1.305-1.8,2.565q0.45,0,0.81-0.0675t1.575-0.6975z M241.2915,111.925q-0.54-0.225-1.1925-0.225t-1.305,0.81t-0.6525,1.7325t0.495,1.5525q2.205-3.15,2.655-3.87z M263.77665,124.615q0.6075,0.45,0.6075,1.0125t-0.5625,0.99t-1.2375,0.4275t-1.2375-0.4725t-0.5625-1.1025q0-1.305,1.71-1.305q0.675,0,1.2825,0.45z"/><path fill="#" d=""/></svg>
